<svg xmlns="http://www.w3.org/2000/svg" width="512" height="512" viewBox="0 0 512 512" version="1.1">
	<path d="M 239.500 50.571 C 237.850 50.798, 232.450 51.491, 227.500 52.111 C 184.878 57.449, 142.228 78.719, 110.474 110.474 C 79.331 141.616, 60.209 179.142, 52.346 224.543 C 49.933 238.473, 49.933 273.527, 52.346 287.457 C 60.209 332.858, 79.331 370.384, 110.474 401.526 C 141.616 432.669, 179.142 451.791, 224.543 459.654 C 238.473 462.067, 273.527 462.067, 287.457 459.654 C 332.858 451.791, 370.384 432.669, 401.526 401.526 C 432.669 370.384, 451.791 332.858, 459.654 287.457 C 462.067 273.527, 462.067 238.473, 459.654 224.543 C 451.791 179.142, 432.669 141.616, 401.526 110.474 C 370.507 79.454, 332.281 59.933, 287.986 52.491 C 279.012 50.983, 246.001 49.676, 239.500 50.571 M 237.500 106.687 C 219.990 108.951, 204.193 113.809, 187.500 122.063 C 143.401 143.870, 112.086 185.926, 103.849 234.410 C 101.135 250.385, 101.585 278.347, 104.792 293 C 111.517 323.720, 124.929 348.109, 147.429 370.526 C 165.589 388.619, 184.459 400.372, 208 408.252 C 224.861 413.896, 235.710 415.500, 257 415.497 C 278.246 415.494, 289.037 413.896, 306 408.239 C 329.364 400.448, 348.619 388.458, 366.545 370.540 C 396.664 340.432, 411.985 303.956, 412.142 261.982 C 412.195 247.789, 411.820 243.567, 409.350 230.500 C 407.155 218.893, 402.614 204.280, 400.564 202.231 C 400.169 201.836, 384.744 207.913, 383.782 208.842 C 383.388 209.223, 384.184 213.061, 385.553 217.370 C 391.179 235.085, 392.306 242.370, 392.306 261 C 392.306 275.521, 391.930 280.116, 390.097 287.990 C 383.360 316.934, 370.559 339.781, 350.269 359.075 C 332.843 375.645, 313.860 386.071, 289 392.724 C 276.108 396.175, 247.295 397.113, 233.516 394.531 C 204.584 389.110, 179.272 375.472, 158.971 354.367 C 125.388 319.454, 113.093 269.908, 126.495 223.500 C 147.286 151.503, 222.693 109.823, 294.573 130.597 C 302.382 132.854, 321 140.645, 321 141.656 C 321 141.857, 317.825 146.322, 313.943 151.577 C 306.678 161.415, 305.160 163.998, 306.643 164.003 C 307.114 164.005, 316.950 165.392, 328.500 167.086 C 340.050 168.780, 354.788 170.935, 361.250 171.876 C 367.712 172.816, 373 173.274, 373 172.892 C 373 171.688, 349.546 109.799, 348.133 107.273 C 347.446 106.046, 345.943 107.501, 341.068 114.107 C 337.662 118.723, 334.541 123.075, 334.132 123.779 C 333.571 124.743, 331.071 123.968, 323.944 120.620 C 302.046 110.330, 281.330 105.909, 256.151 106.150 C 247.543 106.232, 239.150 106.474, 237.500 106.687 M 243.801 184.866 C 233.185 188.380, 225.411 196.184, 220.850 207.908 C 219.113 212.374, 218.584 216.268, 218.224 227.244 L 217.773 240.988 213.879 242.154 C 208.081 243.892, 202.466 249.183, 200.595 254.675 C 199.271 258.560, 199 264.574, 199 290.029 C 199 310.301, 199.386 321.854, 200.138 324.101 C 201.844 329.195, 205.647 333.779, 210.018 336.009 C 213.736 337.906, 215.960 338, 257 338 C 297.903 338, 300.275 337.900, 303.945 336.028 C 308.254 333.830, 311.476 330.188, 313.591 325.128 C 315.381 320.843, 315.635 261.851, 313.890 255.500 C 312.465 250.313, 305.427 243.461, 300.032 242.008 L 296 240.923 296 230.172 C 296 207.890, 288.422 193.052, 273.657 186.427 C 265.486 182.760, 252.254 182.068, 243.801 184.866 M 247.006 205.250 C 239.769 208.935, 238 213.534, 238 228.657 L 238 241 257.079 241 L 276.159 241 275.829 228.250 C 275.559 217.777, 275.132 214.786, 273.442 211.500 C 270.696 206.162, 264.579 203, 257 203 C 253.193 203, 250.022 203.714, 247.006 205.250 M 250.145 262.070 C 242.779 265.020, 237.997 271.771, 238.004 279.210 C 238.008 284.323, 240.463 288.726, 245.415 292.503 L 249 295.237 249 307.119 L 249 319 257 319 L 265 319 265.012 306.750 L 265.025 294.500 268.489 292.256 C 274.625 288.281, 277.453 279.975, 274.936 273.315 C 271.564 264.389, 258.805 258.602, 250.145 262.070" stroke="none" fill="black" fill-rule="evenodd"/>
</svg>